<?xml version="1.0" encoding="UTF-8" standalone="no"?>
<!-- Created with Inkscape (http://www.inkscape.org/) -->

<svg
   width="87.684067mm"
   height="10.221603mm"
   viewBox="0 0 87.684064 10.221604"
   version="1.1"
   id="svg5"
   inkscape:version="1.2 (dc2aedaf03, 2022-05-15)"
   sodipodi:docname="buy-me-a-coffee.svg"
   xmlns:inkscape="http://www.inkscape.org/namespaces/inkscape"
   xmlns:sodipodi="http://sodipodi.sourceforge.net/DTD/sodipodi-0.dtd"
   xmlns="http://www.w3.org/2000/svg"
   xmlns:svg="http://www.w3.org/2000/svg">
  <sodipodi:namedview
     id="namedview7"
     pagecolor="#505050"
     bordercolor="#eeeeee"
     borderopacity="1"
     inkscape:showpageshadow="0"
     inkscape:pageopacity="0"
     inkscape:pagecheckerboard="false"
     inkscape:deskcolor="#505050"
     inkscape:document-units="mm"
     showgrid="true"
     inkscape:zoom="2.8284271"
     inkscape:cx="120.91526"
     inkscape:cy="-4.065864"
     inkscape:window-width="1920"
     inkscape:window-height="1001"
     inkscape:window-x="-9"
     inkscape:window-y="-9"
     inkscape:window-maximized="1"
     inkscape:current-layer="text9527"
     showborder="true"
     shape-rendering="auto">
    <inkscape:grid
       type="xygrid"
       id="grid9"
       color="#c0c0d1"
       opacity="0.1254902"
       empcolor="#292930"
       empopacity="0.25098039"
       originx="29.433904"
       originy="10.056955" />
  </sodipodi:namedview>
  <defs
     id="defs2" />
  <g
     inkscape:label="Layer 1"
     inkscape:groupmode="layer"
     id="layer1"
     transform="translate(29.433905,10.056953)">
    <g
       aria-label="Buy me a coffee"
       id="text9527"
       style="font-size:10.5833px;line-height:1.25;letter-spacing:0px;word-spacing:0px;fill:#ffffff;stroke-width:0.264583">
      <path
         id="path10017-2-7"
         style="font-size:10.5833px;line-height:1.25;letter-spacing:0px;word-spacing:0px;fill:#ffffff;stroke-width:0.264583"
         d="m 41.713707,0.1646476 c -0.64423,0 -1.136882,-0.1843156 -1.477946,-0.5529396 -0.341063,-0.365178 -0.511597,-0.89056 -0.511597,-1.576131 v -0.191203 h -0.656292 v -0.816487 h 0.656292 v -4.9557703 h 0.971517 v 4.9557703 h 1.720824 v 0.816487 h -1.751831 v 0.196371 c 0,0.48231 0.09302,0.814765 0.279053,0.997355 0.189479,0.186034 0.49265,0.279053 0.909505,0.279053 0.130913,0 0.282499,-0.017224 0.454753,-0.051677 0.172253,-0.031007 0.311781,-0.062011 0.418579,-0.093017 h 0.05168 V 0.061293 C 42.633551,0.088853 42.473352,0.112967 42.297653,0.13364 42.125399,0.15431 41.93075,0.16465 41.71371,0.16465 Z m 3.720703,0 c -0.64423,0 -1.136882,-0.1843156 -1.477946,-0.5529396 -0.341063,-0.365178 -0.511597,-0.89056 -0.511597,-1.576131 v -0.191203 h -0.656292 v -0.816487 h 0.656292 v -4.9557703 h 0.971517 v 4.9557703 h 1.720824 v 0.816487 h -1.751831 v 0.196371 c 0,0.48231 0.09302,0.814765 0.279053,0.997355 0.18948,0.186034 0.492651,0.279053 0.909505,0.279053 0.130913,0 0.282498,-0.017224 0.454753,-0.051677 0.172253,-0.031007 0.311782,-0.062011 0.418579,-0.093017 h 0.05168 V 0.061293 C 46.354253,0.088853 46.194056,0.112967 46.018356,0.13364 45.846103,0.15431 45.651452,0.16465 45.434413,0.16465 Z M 35.507368,-1.995429 c -0.816485,0 -1.465891,-0.273888 -1.948201,-0.821655 -0.478867,-0.544323 -0.718303,-1.286747 -0.718303,-2.227254 0,-0.940507 0.239436,-1.682932 0.718303,-2.227255 0.482311,-0.5443225 1.131717,-0.8164872 1.948201,-0.8164872 0.809595,0 1.455554,0.2721647 1.937866,0.8164872 0.482312,0.544323 0.723469,1.286748 0.723469,2.227255 0,0.940507 -0.241157,1.682931 -0.723469,2.227254 -0.482312,0.547767 -1.128271,0.821655 -1.937866,0.821655 z m 14.004312,0 c -0.8406,0 -1.519289,-0.277332 -2.036051,-0.83199 -0.513318,-0.554659 -0.769979,-1.303973 -0.769979,-2.247925 0,-0.954288 0.268719,-1.691544 0.806152,-2.211752 0.537433,-0.5167617 1.285025,-0.775146 2.242757,-0.775146 0.375514,0 0.733806,0.046509 1.074869,0.1395264 0.341065,0.093017 0.675241,0.2084286 1.002524,0.3462316 v 1.059367 h -0.05168 c -0.16881,-0.151584 -0.453032,-0.306614 -0.852662,-0.465088 -0.396184,-0.155028 -0.790651,-0.232544 -1.183391,-0.232544 -0.296277,0 -0.568441,0.041342 -0.816487,0.124024 -0.244602,0.082682 -0.456477,0.206706 -0.635621,0.37207 -0.186034,0.168809 -0.332451,0.384129 -0.439249,0.645956 -0.106797,0.265271 -0.160196,0.575332 -0.160196,0.930175 h 4.25297 v 0.5271 c 0,0.837155 -0.211875,1.483116 -0.635621,1.937866 -0.4203,0.454751 -1.019751,0.682129 -1.79834,0.682129 z m 6.304525,0 c -0.8406,0 -1.519289,-0.277332 -2.036051,-0.83199 -0.513317,-0.554659 -0.769979,-1.303973 -0.769979,-2.247925 0,-0.954288 0.26872,-1.691544 0.806152,-2.211752 0.537433,-0.5167617 1.285024,-0.775146 2.242756,-0.775146 0.375515,0 0.733807,0.046509 1.07487,0.1395264 0.341063,0.093017 0.67524,0.2084286 1.002523,0.3462316 v 1.059367 h -0.05168 c -0.16881,-0.151584 -0.453032,-0.306614 -0.852661,-0.465088 -0.396184,-0.155028 -0.790651,-0.232544 -1.18339,-0.232544 -0.296278,0 -0.568442,0.041342 -0.816488,0.124024 -0.2446,0.082682 -0.456475,0.206706 -0.635621,0.37207 -0.186034,0.168809 -0.332452,0.384129 -0.43925,0.645956 -0.106797,0.265271 -0.160196,0.575332 -0.160196,0.930175 h 4.25297 v 0.5271 c 0,0.837155 -0.211875,1.483116 -0.63562,1.937866 -0.4203,0.454751 -1.019752,0.682129 -1.79834,0.682129 z m -45.8199415,-0.00568 0.001,-0.7922 c 0.5167625,0 0.8833235,-0.142628 1.1348145,-0.42168 0.254915,-0.27905 0.384073,-0.673517 0.387573,-1.18339 H 9.9936465 V -5.14252 H 12.46533 v 0.5271 c 0,0.837155 -0.211876,1.483116 -0.63562,1.937866 -0.4203,0.454751 -1.054892,0.676445 -1.8334795,0.676445 z m 9.6366205,-0.014986 c -0.347953,0 -0.701079,-0.031005 -1.059368,-0.093018 -0.358288,-0.062014 -0.632176,-0.118859 -0.821655,-0.170532 v -0.98702 h 0.05168 c 0.334171,0.127471 0.658014,0.223935 0.971516,0.289388 0.313502,0.068902 0.597725,0.103353 0.852662,0.103353 0.210149,0 0.41169,-0.013781 0.604614,-0.041341 0.192925,-0.027561 0.358291,-0.08096 0.496094,-0.160197 0.144694,-0.082682 0.254938,-0.196372 0.330729,-0.341065 0.07924,-0.144693 0.118856,-0.327284 0.118856,-0.54777 v -0.149862 c -0.564993,-0.027562 -1.093819,-0.068903 -1.586466,-0.124023 -0.492647,-0.055121 -0.914675,-0.160198 -1.266073,-0.315226 -0.347953,-0.155029 -0.616672,-0.368626 -0.806152,-0.640788 -0.186035,-0.268716 -0.279053,-0.621842 -0.279053,-1.059367 0,-0.533987 0.180869,-0.973241 0.542603,-1.317749 0.361733,-0.3445083 0.802709,-0.5167642 1.322916,-0.5167642 0.282496,0 0.528822,0.027561 0.738973,0.082682 0.21015,0.051676 0.396186,0.1171336 0.558106,0.1963704 0.137803,0.062012 0.279053,0.1446945 0.423746,0.2480465 0.148139,0.106798 0.265273,0.189481 0.3514,0.248047 v -0.6149493 h 0.966349 v 3.9170733 c 0,0.372069 -0.05684,0.683853 -0.170532,0.935344 -0.113687,0.251491 -0.279053,0.456475 -0.496094,0.614949 -0.220485,0.161915 -0.482314,0.275605 -0.785481,0.341065 -0.299723,0.068902 -0.652848,0.103353 -1.059367,0.103353 z m 10.520804,-0.00517 c -0.850934,0 -1.535999,-0.26872 -2.056205,-0.806152 -0.516762,-0.537433 -0.775146,-1.278135 -0.775146,-2.222087 0,-0.506427 0.0689,-0.949125 0.206706,-1.328084 0.137803,-0.378959 0.332453,-0.692466 0.583943,-0.940511 0.248047,-0.248047 0.545533,-0.434083 0.893486,-0.5581059 0.347953,-0.1205778 0.730362,-0.1808675 1.147217,-0.1808675 0.327283,0 0.635621,0.043064 0.925008,0.1291911 0.292832,0.086127 0.601171,0.2067053 0.925008,0.3617353 v 1.069702 h -0.05168 c -0.07235,-0.058566 -0.170532,-0.129192 -0.294556,-0.211873 -0.124023,-0.079238 -0.25666,-0.15503 -0.397908,-0.227377 -0.161918,-0.082684 -0.34451,-0.149865 -0.54777,-0.201538 -0.20326,-0.05168 -0.403077,-0.077515 -0.599446,-0.077515 -0.564994,0 -1.004247,0.186037 -1.31775,0.558106 -0.310058,0.375514 -0.465088,0.91123 -0.465088,1.607137 0,0.716577 0.158476,1.259184 0.475423,1.627808 0.320393,0.372069 0.756201,0.558105 1.307415,0.558105 0.299721,0 0.606338,-0.062012 0.91984,-0.186035 0.316946,-0.124023 0.623563,-0.301447 0.919841,-0.532267 h 0.05168 v 1.080037 c -0.265271,0.134358 -0.558107,0.248047 -0.8785,0.341065 -0.316948,0.093017 -0.64079,0.139526 -0.971517,0.139526 z m 19.306316,-0.775147 c 0.516762,0 0.900893,-0.139527 1.152384,-0.418579 0.254914,-0.279051 0.384107,-0.673518 0.387573,-1.18339 H 47.69267 c 0.04134,0.45475 0.21532,0.835437 0.521932,1.142049 0.310057,0.306613 0.725195,0.45992 1.245402,0.45992 z m 6.304525,0 c 0.516762,0 0.900893,-0.139527 1.152384,-0.418579 0.254914,-0.279051 0.384107,-0.673518 0.387573,-1.18339 h -3.307291 c 0.04134,0.45475 0.215319,0.835437 0.521931,1.142049 0.310058,0.306613 0.725195,0.45992 1.245403,0.45992 z M 35.507367,-2.832585 c 0.520207,0 0.926732,-0.182591 1.219564,-0.54777 0.292831,-0.361734 0.43925,-0.916399 0.43925,-1.663981 0,-0.730357 -0.148142,-1.281577 -0.444418,-1.653646 -0.292832,-0.368624 -0.697634,-0.552938 -1.214396,-0.552938 -0.523652,0 -0.9319,0.186037 -1.224731,0.558105 -0.292832,0.375515 -0.43925,0.925012 -0.43925,1.648479 0,0.747582 0.144696,1.302247 0.434081,1.663981 0.292832,0.365179 0.702802,0.54777 1.2299,0.54777 z M 21.178008,-4.899642 v -1.607137 c -0.241156,-0.186035 -0.502984,-0.346233 -0.785482,-0.480591 -0.282497,-0.130913 -0.59428,-0.196371 -0.935343,-0.196371 -0.409965,0 -0.714858,0.082683 -0.914673,0.248047 -0.199814,0.168809 -0.299723,0.418581 -0.299723,0.749308 0,0.292832 0.08613,0.521933 0.258382,0.687297 0.172254,0.168809 0.397909,0.292834 0.676961,0.37207 0.234266,0.065455 0.551217,0.115409 0.950847,0.149862 0.403074,0.034447 0.752754,0.060288 1.049031,0.077515 z m -8.87801,-1.617473 c -0.168809,-0.151584 -0.453031,-0.306614 -0.852661,-0.465088 -0.396185,-0.155022 -0.790652,-0.232544 -1.18339,-0.232544 -0.148139,0 -0.240616,0.00295 -0.2656165,0.00465 v -0.8459428 c 0.1131485,-0.00807 0.1562345,-0.0062 0.2759515,-0.0062 0.375514,0 0.733807,0.046509 1.07487,0.1395264 0.341063,0.093017 0.67524,0.2084286 1.002523,0.3462316 v 1.059367 z"
         transform="translate(1.2916667e-6)" />
      <path
         id="rect10145"
         style="font-size:10.5833px;line-height:1.25;letter-spacing:0px;word-spacing:0px;fill:#ffffff;stroke-width:3.75145;fill-opacity:1;stroke-linecap:round;stroke-linejoin:round"
         d="m 7.0072819,-2.0011116 v -0.7921997 h 2.9894816 v 0.7921997 z m 0.035657,-2.3972697 v -0.7441406 l 2.9507076,1.9e-6 v 0.744141 z m 0.040824,-2.8117146 1e-7,-0.8464625 2.923336,2.5e-6 v 0.84646 z"
         sodipodi:nodetypes="ccccccccccccccc"
         transform="translate(1.2916667e-6)" />
      <path
         id="path10009"
         d="m -29.433905,-0.2332584 v -7.694621 h 2.728516 c 0.533987,0 0.97324,0.048232 1.317749,0.144694 0.347953,0.096463 0.666627,0.258384 0.956014,0.485759 0.2446,0.18948 0.439249,0.430638 0.583943,0.72347 0.144693,0.292831 0.217041,0.630454 0.217041,1.012858 0,0.533987 -0.149862,0.974964 -0.449585,1.322916 -0.299721,0.351399 -0.709691,0.580499 -1.229899,0.687297 v 0.041341 c 0.310058,0.155029 0.558106,0.360014 0.744141,0.61495 0.186034,0.258381 0.279053,0.570164 0.279053,0.935343 0,0.323838 -0.06374,0.60117 -0.191203,0.831991 -0.127468,0.234265 -0.332453,0.42547 -0.61495,0.573608 -0.254936,0.130914 -0.521933,0.217042 -0.800984,0.258382 -0.279052,0.04134 -0.699357,0.062012 -1.260905,0.062012 z m 1.023193,-0.873332 h 1.219564 c 0.341063,0 0.627008,-0.01206 0.857829,-0.036173 0.23082,-0.020671 0.427192,-0.077515 0.589111,-0.170532 0.137801,-0.079237 0.23771,-0.18259 0.299723,-0.310059 0.06201,-0.127468 0.09302,-0.284221 0.09302,-0.470256 0,-0.223929 -0.03445,-0.418579 -0.103353,-0.583943 -0.06546,-0.161919 -0.179145,-0.294556 -0.341064,-0.397909 -0.161919,-0.10335 -0.33762,-0.172252 -0.5271,-0.206706 -0.189479,-0.031006 -0.444418,-0.046508 -0.764811,-0.046508 h -1.322917 z m 25.678019,-0.888834 c -0.341063,0 -0.663181,-0.070626 -0.966349,-0.211874 -0.299722,-0.141248 -0.60117,-0.33762 -0.904337,-0.589111 v 0.640788 h -0.971517 v -5.772258 h 0.971517 v 4.309815 c 0.265271,0.203259 0.530546,0.370348 0.795817,0.501261 0.268716,0.130913 0.535713,0.196371 0.800984,0.196371 0.279052,0 0.49265,-0.037897 0.640788,-0.113689 0.148139,-0.072346 0.261828,-0.18259 0.341065,-0.330729 0.072344,-0.137803 0.118853,-0.322117 0.139526,-0.552938 0.024113,-0.227375 0.036173,-0.468533 0.036173,-0.72347 v -3.286621 h 0.971517 v 3.694865 c 0,0.103353 -0.003442,0.206707 -0.010335,0.310059 -0.006893,0.106798 -0.015505,0.199816 -0.025838,0.279052 0.272162,0.21015 0.544326,0.382406 0.816488,0.516765 0.272161,0.137803 0.544326,0.206706 0.816487,0.206706 0.279052,0 0.492649,-0.037897 0.640788,-0.113689 0.148138,-0.075792 0.261828,-0.187758 0.341064,-0.335896 0.072344,-0.137804 0.118853,-0.322118 0.139527,-0.552938 0.024113,-0.230821 0.036173,-0.470257 0.036173,-0.718303 v -3.286621 h 0.971517 v 3.746542 c 0,0.689016 -0.151585,1.224732 -0.454752,1.607137 -0.299722,0.385849 -0.766537,0.578776 -1.400432,0.578776 -0.368624,0 -0.714859,-0.07407 -1.038696,-0.222209 -0.323838,-0.144693 -0.68213,-0.382407 -1.07487,-0.713135 -0.134358,0.292832 -0.339343,0.521933 -0.614949,0.687297 -0.272162,0.165364 -0.604617,0.248047 -0.997356,0.248047 z m 9.814388,-0.00569 c -0.8406,0 -1.484148,-0.271647 -2.000911,-0.826306 -0.513317,-0.554658 -0.769979,-1.303973 -0.769979,-2.247925 0,-0.954288 0.26872,-1.691544 0.806153,-2.211751 0.134357,-0.129191 0.281723,-0.242108 0.44235,-0.338997 0.160627,-0.096893 0.33452,-0.177763 0.521415,-0.242363 0.186896,-0.06459 0.3868,-0.112911 0.599963,-0.145211 0.106582,-0.01615 0.289908,-0.034791 0.403077,-0.042891 v 0.846465 c -0.137336,0.00917 -0.426848,0.078032 -0.550871,0.119372 -0.244601,0.082682 -0.456477,0.206707 -0.63562,0.372071 -0.186035,0.168809 -0.332452,0.384128 -0.43925,0.645955 -0.106796,0.265271 -0.160197,0.575332 -0.160197,0.930176 h 1.781287 l 0.00362,0.744141 H 5.297825 c 0.041341,0.45475 0.215319,0.835436 0.521932,1.142049 0.310058,0.306612 0.742766,0.463021 1.262972,0.463021 z m -29.379085,-0.154512 v -3.746542 c 0,-0.716576 0.168812,-1.260906 0.506429,-1.632975 0.337619,-0.368624 0.8096,-0.552938 1.415934,-0.552938 0.361734,0 0.692466,0.068903 0.992188,0.206706 0.299722,0.137803 0.613228,0.335898 0.940511,0.594279 v -0.640788 h 0.971517 v 5.772258 h -0.971517 v -4.309815 c -0.258381,-0.20326 -0.537436,-0.370348 -0.837158,-0.501261 -0.296277,-0.130913 -0.570164,-0.196371 -0.821655,-0.196371 -0.282497,0 -0.497817,0.034451 -0.645956,0.103353 -0.148138,0.068902 -0.268718,0.179146 -0.361735,0.330729 -0.08957,0.148139 -0.14814,0.325563 -0.1757,0.532268 -0.02756,0.21015 -0.04134,0.461644 -0.04134,0.754476 v 3.286621 z m 6.097819,0 2.299601,-5.493205 -1.074869,-2.4081216 h 1.038696 l 3.369303,7.9013266 h -1.018025 l -1.788005,-4.278809 -1.772502,4.278809 z m -12.211141,-2.036052 h 1.607137 c 0.337619,0 0.623564,-0.013781 0.857829,-0.041341 0.237711,-0.024116 0.43925,-0.079238 0.604614,-0.165364 0.244601,-0.127468 0.413412,-0.282499 0.506429,-0.465088 0.09302,-0.182589 0.139527,-0.428916 0.139527,-0.738973 0,-0.272162 -0.04479,-0.494372 -0.134359,-0.666626 -0.08957,-0.172254 -0.230822,-0.325562 -0.423747,-0.459921 -0.182589,-0.12402 -0.416857,-0.210148 -0.702799,-0.258382 -0.285942,-0.044786 -0.652847,-0.067179 -1.100708,-0.067179 h -1.353923 z"
         style="font-size:10.5833px;line-height:1.25;letter-spacing:0px;word-spacing:0px;fill:#ffffff;stroke-width:0.264583"
         transform="translate(1.2916667e-6)" />
    </g>
  </g>
</svg>
