<?xml version="1.0" encoding="UTF-8" standalone="no"?>
<!-- Created with Inkscape (http://www.inkscape.org/) -->

<svg
   width="48.256657mm"
   height="27.69989mm"
   viewBox="0 0 48.256655 27.699891"
   version="1.1"
   id="svg5"
   inkscape:version="1.2 (dc2aedaf03, 2022-05-15)"
   sodipodi:docname="buy-me-a-coffee.svg"
   xmlns:inkscape="http://www.inkscape.org/namespaces/inkscape"
   xmlns:sodipodi="http://sodipodi.sourceforge.net/DTD/sodipodi-0.dtd"
   xmlns="http://www.w3.org/2000/svg"
   xmlns:svg="http://www.w3.org/2000/svg">
  <sodipodi:namedview
     id="namedview7"
     pagecolor="#505050"
     bordercolor="#eeeeee"
     borderopacity="1"
     inkscape:showpageshadow="0"
     inkscape:pageopacity="0"
     inkscape:pagecheckerboard="false"
     inkscape:deskcolor="#505050"
     inkscape:document-units="mm"
     showgrid="true"
     inkscape:zoom="2"
     inkscape:cx="25.5"
     inkscape:cy="93.75"
     inkscape:window-width="1920"
     inkscape:window-height="1001"
     inkscape:window-x="-9"
     inkscape:window-y="-9"
     inkscape:window-maximized="1"
     inkscape:current-layer="text9527"
     showborder="true"
     shape-rendering="auto">
    <inkscape:grid
       type="xygrid"
       id="grid9"
       color="#c0c0d1"
       opacity="0.1254902"
       empcolor="#292930"
       empopacity="0.25098039"
       originx="-7.0072814"
       originy="29.535869" />
  </sodipodi:namedview>
  <defs
     id="defs2" />
  <g
     inkscape:label="Layer 1"
     inkscape:groupmode="layer"
     id="layer1"
     transform="translate(-7.0072819,29.535868)">
    <g
       aria-label="Buy me a coffee"
       id="text9527"
       style="font-size:10.5833px;line-height:1.25;letter-spacing:0px;word-spacing:0px;fill:#ffffff;stroke-width:0.264583">
      <g
         id="g10965"
         transform="translate(-0.33072917,-12.104687)">
        <path
           d="m 13.141256,-12.103358 q 0,0.573607 -0.21704,1.012855 -0.217041,0.439248 -0.583942,0.723468 -0.434081,0.341063 -0.956011,0.4857568 -0.516763,0.1446935 -1.317745,0.1446935 H 7.3380112 v -7.6945963 h 2.2789234 q 0.8423234,0 1.2609004,0.06201 0.418578,0.06201 0.800983,0.258381 0.423745,0.222208 0.614947,0.573606 0.191202,0.346231 0.191202,0.831988 0,0.547769 -0.279051,0.935341 -0.279052,0.382404 -0.744139,0.614947 v 0.04134 q 0.780312,0.160197 1.229895,0.687295 0.449584,0.52193 0.449584,1.322912 z m -1.72082,-3.467477 q 0,-0.279052 -0.09302,-0.470254 -0.09302,-0.191203 -0.299722,-0.310058 -0.242879,-0.139526 -0.58911,-0.170532 -0.346231,-0.03617 -0.8578258,-0.03617 H 8.3612013 v 2.22208 h 1.3229124 q 0.4805893,0 0.7648083,-0.04651 0.28422,-0.05168 0.527098,-0.206705 0.242879,-0.155029 0.341064,-0.397907 0.103352,-0.248047 0.103352,-0.583942 z m 0.656289,3.508818 q 0,-0.465086 -0.139526,-0.73897 -0.139526,-0.273885 -0.506427,-0.465087 -0.248047,-0.12919 -0.604613,-0.165364 -0.351398,-0.04134 -0.8578258,-0.04134 H 8.3612013 v 2.862865 h 1.3539182 q 0.6717915,0 1.1007045,-0.06718 0.428913,-0.07235 0.702797,-0.258381 0.289387,-0.201538 0.423746,-0.459919 0.134358,-0.258381 0.134358,-0.666624 z"
           id="path10009" />
        <path
           d="M 19.301067,-9.7365847 H 18.329554 V -10.37737 q -0.490925,0.3875716 -0.940509,0.5942767 -0.449583,0.2067051 -0.992184,0.2067051 -0.909502,0 -1.41593,-0.5529358 -0.506427,-0.558104 -0.506427,-1.63297 v -3.74653 h 0.971514 v 3.286611 q 0,0.439248 0.04134,0.754473 0.04134,0.310058 0.175699,0.532266 0.139526,0.227376 0.361734,0.330728 0.222208,0.103353 0.645953,0.103353 0.377237,0 0.821653,-0.19637 0.449584,-0.19637 0.837156,-0.50126 v -4.309801 h 0.971513 z"
           id="path10011" />
        <path
           d="m 26.205017,-15.508824 -3.369293,7.9013016 h -1.038693 l 1.074867,-2.4081146 -2.299594,-5.493187 H 21.6265 l 1.772496,4.278795 1.787999,-4.278795 z"
           id="path10013" />
        <path
           d="m 39.620176,-9.7365847 h -0.971514 v -3.2866103 q 0,-0.372069 -0.03617,-0.7183 -0.03101,-0.346231 -0.139526,-0.552936 -0.118855,-0.222208 -0.341063,-0.335896 -0.222208,-0.113688 -0.640786,-0.113688 -0.408242,0 -0.816485,0.206705 -0.408242,0.201538 -0.816485,0.516763 0.0155,0.118855 0.02584,0.279052 0.01034,0.155028 0.01034,0.310057 v 3.6948533 h -0.971514 v -3.2866103 q 0,-0.382405 -0.03617,-0.723468 -0.03101,-0.346231 -0.139526,-0.552936 -0.118855,-0.222208 -0.341063,-0.330728 -0.222208,-0.113688 -0.640786,-0.113688 -0.397907,0 -0.800982,0.19637 -0.397907,0.19637 -0.795814,0.50126 v 4.3098003 h -0.971514 v -5.7722393 h 0.971514 v 0.640786 q 0.454751,-0.377237 0.904334,-0.58911 0.454752,-0.211872 0.966347,-0.211872 0.589109,0 0.997352,0.248046 0.41341,0.248046 0.614947,0.687294 0.58911,-0.496092 1.074867,-0.713132 0.485756,-0.222208 1.038693,-0.222208 0.950843,0 1.400426,0.578774 0.454752,0.573607 0.454752,1.607132 z"
           id="path10015" />
        <path
           d="m 43.854501,-14.870961 c -0.520207,0 -0.95288,0.156229 -1.262938,0.462842 -0.306613,0.306613 -0.480589,0.687294 -0.52193,1.142045 h 1.785187 l -0.0037,0.744139 h -1.781477 c 0,0.354844 0.0534,0.664901 0.160196,0.930172 0.106798,0.261827 0.253214,0.477145 0.439249,0.645954 0.179144,0.165364 0.391017,0.289387 0.635618,0.372069 0.124023,0.04134 0.413599,0.110155 0.550935,0.119327 l -2.9e-5,0.8462768 c -0.113169,-0.00807 -0.296416,-0.026387 -0.402998,-0.042536 -0.213164,-0.032297 -0.413195,-0.080745 -0.600091,-0.1453399 -0.186895,-0.064595 -0.360657,-0.1453394 -0.521284,-0.2422319 -0.160627,-0.09689 -0.30812,-0.209935 -0.442478,-0.339126 -0.537433,-0.520208 -0.80615,-1.257456 -0.80615,-2.211745 0,-0.943953 0.256659,-1.693258 0.769977,-2.247917 0.516763,-0.554659 1.160365,-0.826141 2.000966,-0.826141 z"
           id="path10017-2"
           style="font-size:10.5833px;line-height:1.25;letter-spacing:0px;word-spacing:0px;fill:#ffffff;stroke-width:0.264583"
           sodipodi:nodetypes="cccccccccccssscsccc" />
      </g>
      <g
         id="g10975"
         transform="translate(-36.843828,-0.0988706)">
        <path
           d="m 43.855663,-10.454413 c 0.025,0.0017 0.117411,0.0047 0.26555,0.0047 0.392739,0 0.787201,-0.07752 1.183386,-0.232543 0.39963,-0.158474 0.68385,-0.313503 0.852659,-0.465087 h 0.05168 v 1.059364 c -0.327283,0.1378033 -0.661457,0.2532135 -1.00252,0.3462308 -0.341063,0.093017 -0.699352,0.1395259 -1.074866,0.1395259 -0.119717,0 -0.162769,0.00216 -0.275918,-0.00591 z m -0.0021,-5.208761 c 0.778589,0 1.413112,0.22153 1.833413,0.676281 0.423745,0.454751 0.635618,1.100704 0.635618,1.93786 l -4e-6,0.527098 h -2.47148 l 2e-6,-0.744139 h 1.525792 c -0.0035,-0.509873 -0.132657,-0.904335 -0.387572,-1.183386 -0.251491,-0.279052 -0.618078,-0.421501 -1.134841,-0.421501 z"
           id="path10017-2-7"
           style="font-size:10.5833px;line-height:1.25;letter-spacing:0px;word-spacing:0px;fill:#ffffff;stroke-width:0.264583"
           sodipodi:nodetypes="csccccssccccsccccccc" />
        <path
           d="m 56.001551,-9.7365847 h -0.966346 v -0.6149473 q -0.129191,0.08785 -0.351399,0.248046 -0.21704,0.1550286 -0.423745,0.2480459 -0.242879,0.1188554 -0.558104,0.1963698 -0.315225,0.082682 -0.738971,0.082682 -0.780311,0 -1.322912,-0.5167627 -0.542601,-0.516763 -0.542601,-1.317745 0,-0.656288 0.279052,-1.059363 0.28422,-0.408243 0.80615,-0.640786 0.527098,-0.232543 1.266068,-0.315225 0.738971,-0.08268 1.586462,-0.124023 v -0.149861 q 0,-0.330729 -0.118856,-0.547769 -0.113687,-0.21704 -0.330728,-0.341063 -0.206705,-0.118856 -0.496092,-0.160197 -0.289387,-0.04134 -0.604612,-0.04134 -0.382405,0 -0.852659,0.103353 -0.470254,0.09818 -0.971513,0.289387 h -0.05168 V -15.3848 q 0.28422,-0.07751 0.821653,-0.170531 0.537433,-0.09302 1.059363,-0.09302 0.60978,0 1.059364,0.103353 0.454751,0.09819 0.785479,0.341063 0.325561,0.237711 0.496092,0.614948 0.170532,0.377237 0.170532,0.93534 z m -0.966346,-1.4210973 v -1.607132 q -0.444416,0.02584 -1.049028,0.07751 -0.599445,0.05168 -0.950844,0.149862 -0.418578,0.118855 -0.676959,0.372069 -0.258381,0.248046 -0.258381,0.687294 0,0.496092 0.299722,0.749306 0.299722,0.248046 0.91467,0.248046 0.511595,0 0.935341,-0.19637 0.423745,-0.201537 0.785479,-0.480589 z"
           id="path10019" />
        <path
           d="m 65.861384,-10.098319 q -0.485756,0.2325437 -0.925005,0.3617343 -0.43408,0.1291907 -0.925005,0.1291907 -0.625283,0 -1.147213,-0.1808669 -0.52193,-0.1860346 -0.894,-0.5581041 -0.377236,-0.372069 -0.583941,-0.940508 -0.206705,-0.568439 -0.206705,-1.32808 0,-1.41593 0.775144,-2.222079 0.780311,-0.80615 2.056715,-0.80615 0.496092,0 0.971514,0.139526 0.480589,0.139526 0.878496,0.341063 v 1.080034 h -0.05168 q -0.444416,-0.346231 -0.919837,-0.532265 -0.470254,-0.186035 -0.919838,-0.186035 -0.82682,0 -1.30741,0.558104 -0.475421,0.552936 -0.475421,1.627802 0,1.043861 0.465086,1.607132 0.470254,0.558104 1.317745,0.558104 0.294555,0 0.599445,-0.07752 0.30489,-0.07751 0.547768,-0.201537 0.211873,-0.10852 0.397907,-0.227376 0.186035,-0.124023 0.294555,-0.211872 h 0.05168 z"
           id="path10021" />
        <path
           d="m 72.026364,-12.62012 q 0,1.410762 -0.723468,2.227247 -0.723467,0.8164848 -1.93786,0.8164848 -1.224727,0 -1.948195,-0.8164848 -0.7183,-0.816485 -0.7183,-2.227247 0,-1.410763 0.7183,-2.227248 0.723468,-0.821652 1.948195,-0.821652 1.214393,0 1.93786,0.821652 0.723468,0.816485 0.723468,2.227248 z m -1.002519,0 q 0,-1.121375 -0.439249,-1.663976 -0.439248,-0.547769 -1.21956,-0.547769 -0.790646,0 -1.229895,0.547769 -0.43408,0.542601 -0.43408,1.663976 0,1.085201 0.439248,1.648473 0.439248,0.558103 1.224727,0.558103 0.775144,0 1.214393,-0.552936 0.444416,-0.558104 0.444416,-1.65364 z"
           id="path10023" />
        <path
           d="m 76.635886,-16.836904 h -0.05168 q -0.160197,-0.04651 -0.418578,-0.09302 -0.258381,-0.05168 -0.454751,-0.05168 -0.625283,0 -0.909502,0.279051 -0.279052,0.273885 -0.279052,0.997352 v 0.19637 h 1.751825 v 0.816485 h -1.720819 v 4.9557543 h -0.97151 V -14.692339 H 72.92553 v -0.816485 h 0.656289 v -0.191202 q 0,-1.028358 0.511595,-1.576126 0.511595,-0.552936 1.477941,-0.552936 0.325561,0 0.583942,0.03101 0.263549,0.03101 0.480589,0.07235 z"
           id="path10025" />
        <path
           d="m 80.356582,-16.836904 h -0.05168 q -0.160196,-0.04651 -0.418577,-0.09302 -0.258382,-0.05168 -0.454752,-0.05168 -0.625282,0 -0.909502,0.279051 -0.279052,0.273885 -0.279052,0.997352 v 0.19637 h 1.751826 v 0.816485 h -1.72082 v 4.9557543 h -0.971514 v -4.9557543 h -0.656288 v -0.816485 h 0.656288 v -0.191202 q 0,-1.028358 0.511595,-1.576126 0.511595,-0.552936 1.477942,-0.552936 0.32556,0 0.583941,0.03101 0.263549,0.03101 0.48059,0.07235 z"
           id="path10027" />
        <path
           d="M 85.803257,-12.521935 H 81.5503 q 0,0.532265 0.160196,0.930172 0.160197,0.39274 0.439249,0.645954 0.268716,0.248046 0.635618,0.372069 0.372069,0.124023 0.816485,0.124023 0.589109,0 1.183386,-0.232543 0.599445,-0.237711 0.852659,-0.465087 h 0.05168 v 1.059364 q -0.490924,0.2067048 -1.00252,0.3462307 -0.511595,0.1395259 -1.074866,0.1395259 -1.4366,0 -2.24275,-0.7751436 -0.80615,-0.780312 -0.80615,-2.211745 0,-1.415929 0.769977,-2.247917 0.775144,-0.831988 2.036045,-0.831988 1.167883,0 1.798334,0.682127 0.635618,0.682126 0.635618,1.93786 z m -0.945676,-0.744139 q -0.0052,-0.764809 -0.387572,-1.183386 -0.377237,-0.418578 -1.152381,-0.418578 -0.780311,0 -1.245398,0.459919 -0.459918,0.459919 -0.52193,1.142045 z"
           id="path10029" />
        <path
           d="m 92.107761,-12.521935 h -4.252957 q 0,0.532265 0.160197,0.930172 0.160196,0.39274 0.439248,0.645954 0.268717,0.248046 0.635618,0.372069 0.372069,0.124023 0.816485,0.124023 0.58911,0 1.183387,-0.232543 0.599444,-0.237711 0.852658,-0.465087 h 0.05168 v 1.059364 q -0.490924,0.2067048 -1.002519,0.3462307 -0.511595,0.1395259 -1.074867,0.1395259 -1.4366,0 -2.24275,-0.7751436 -0.806149,-0.780312 -0.806149,-2.211745 0,-1.415929 0.769976,-2.247917 0.775144,-0.831988 2.036045,-0.831988 1.167884,0 1.798334,0.682127 0.635618,0.682126 0.635618,1.93786 z m -0.945675,-0.744139 q -0.0052,-0.764809 -0.387572,-1.183386 -0.377237,-0.418578 -1.152381,-0.418578 -0.780312,0 -1.245398,0.459919 -0.459919,0.459919 -0.521931,1.142045 z"
           id="path10031" />
      </g>
      <g
         id="g10920"
         transform="translate(-31.304314,-3.4726562)">
        <rect
           style="fill:#ffffff;fill-opacity:1;stroke-width:3.75145;stroke-linecap:round;stroke-linejoin:round"
           id="rect10145"
           width="2.9895487"
           height="0.79221243"
           x="38.311596"
           y="-4.4183588"
           ry="0" />
        <rect
           style="font-size:10.5833px;line-height:1.25;letter-spacing:0px;word-spacing:0px;fill:#ffffff;fill-opacity:1;stroke-width:3.75145;stroke-linecap:round;stroke-linejoin:round"
           id="rect10145-3"
           width="2.9236989"
           height="0.74413931"
           x="38.347336"
           y="-2.0212593"
           ry="0" />
        <rect
           style="font-size:10.5833px;line-height:1.25;letter-spacing:0px;word-spacing:0px;fill:#ffffff;fill-opacity:1;stroke-width:3.75145;stroke-linecap:round;stroke-linejoin:round"
           id="rect10145-3-8"
           width="2.9234588"
           height="0.846277"
           x="38.388138"
           y="0.79040158"
           ry="0" />
      </g>
    </g>
  </g>
</svg>
