<?xml version="1.0" encoding="UTF-8" standalone="no"?>
<!-- Created with Inkscape (http://www.inkscape.org/) -->

<svg
   width="41.562321mm"
   height="9.7978554mm"
   viewBox="0 0 41.56232 9.7978555"
   version="1.1"
   id="svg5"
   inkscape:version="1.2 (dc2aedaf03, 2022-05-15)"
   sodipodi:docname="my-work.svg"
   xmlns:inkscape="http://www.inkscape.org/namespaces/inkscape"
   xmlns:sodipodi="http://sodipodi.sourceforge.net/DTD/sodipodi-0.dtd"
   xmlns="http://www.w3.org/2000/svg"
   xmlns:svg="http://www.w3.org/2000/svg">
  <sodipodi:namedview
     id="namedview7"
     pagecolor="#505050"
     bordercolor="#eeeeee"
     borderopacity="1"
     inkscape:showpageshadow="0"
     inkscape:pageopacity="0"
     inkscape:pagecheckerboard="false"
     inkscape:deskcolor="#505050"
     inkscape:document-units="mm"
     showgrid="true"
     inkscape:zoom="4"
     inkscape:cx="108.75"
     inkscape:cy="-12.875"
     inkscape:window-width="1920"
     inkscape:window-height="1001"
     inkscape:window-x="-9"
     inkscape:window-y="-9"
     inkscape:window-maximized="1"
     inkscape:current-layer="layer1"
     showborder="true"
     shape-rendering="auto">
    <inkscape:grid
       type="xygrid"
       id="grid9"
       color="#c0c0d1"
       opacity="0.1254902"
       empcolor="#292930"
       empopacity="0.25098039"
       originx="12.032341"
       originy="-75.822268" />
  </sodipodi:namedview>
  <defs
     id="defs2" />
  <g
     inkscape:label="Layer 1"
     inkscape:groupmode="layer"
     id="layer1"
     transform="translate(12.032341,-75.82227)">
    <path
       id="path1214-3"
       style="font-size:10.5833px;line-height:1.25;font-family:'Arial Unicode MS';-inkscape-font-specification:'Arial Unicode MS, Normal';letter-spacing:0px;word-spacing:0px;fill:#ffffff;stroke-width:0.264583"
       d="m 24.977287,85.60824 v -7.575765 h 0.930175 v 2.180745 l 0.656291,0.625285 1.824178,-2.80603 h 1.142049 l -2.309936,3.451985 2.098063,2.030884 h -1.209229 l -2.201416,-2.222086 v 4.314982 z m -7.184058,-1.957504 v -0.759643 c 0.458196,0 0.842328,-0.173978 1.152384,-0.521932 0.313503,-0.347954 0.470256,-0.864725 0.470256,-1.550293 0,-0.640784 -0.137806,-1.157554 -0.413411,-1.550293 -0.275607,-0.39274 -0.678688,-0.589111 -1.209229,-0.589111 v -0.764812 c 0.661454,0 1.255739,0.222211 1.782837,0.666626 0.527096,0.447861 0.790649,1.210957 0.790649,2.289266 0,0.888831 -0.244603,1.574413 -0.733805,2.056722 -0.485757,0.482311 -1.09899,0.72347 -1.839681,0.72347 z m 5.669938,-0.01137 c -0.478865,0 -0.866443,-0.316951 -1.16272,-0.950847 h -0.02067 v 0.826823 h -0.847494 v -5.482869 h 0.930176 v 2.878377 c 0,0.561547 0.08957,0.997357 0.268718,1.307414 0.179143,0.313501 0.442696,0.470255 0.790649,0.470255 0.220485,0 0.446141,-0.06718 0.676961,-0.201538 l 0.320394,0.857829 c -0.320393,0.19637 -0.639066,0.294556 -0.956014,0.294556 z" />
    <path
       id="rect1514"
       style="fill:#ffffff;fill-opacity:1;stroke:none;stroke-width:5.70566;stroke-linecap:round;stroke-linejoin:round"
       d="m 14.792895,83.650736 v -0.759644 h 3.000334 v 0.759644 z m 0,-4.970756 v -0.76481 h 3.000334 v 0.76481 z" />
    <path
       id="path1214"
       style="font-size:10.5833px;line-height:1.25;font-family:'Arial Unicode MS';-inkscape-font-specification:'Arial Unicode MS, Normal';letter-spacing:0px;word-spacing:0px;fill:#ffffff;stroke-width:0.264583"
       d="M -12.032341,85.620125 V 78.04436 h 0.950847 v 6.444051 h 0.031 l 2.170411,-6.444051 h 0.899169 l 2.180746,6.340698 h 0.02067 V 78.04436 h 0.950847 v 7.575765 H -6.161903 L -7.970578,80.349129 C -8.146277,79.832367 -8.280637,79.427564 -8.373654,79.134733 H -8.39432 c -0.031005,0.151583 -0.146417,0.525379 -0.346232,1.121378 l -1.793172,5.364014 z m 26.825236,-1.968872 c -0.726912,0 -1.336699,-0.237714 -1.829346,-0.713135 -0.492646,-0.471976 -0.738973,-1.190284 -0.738973,-2.154907 0,-0.995628 0.254939,-1.72255 0.764812,-2.180745 0.509872,-0.458197 1.111046,-0.687297 1.803507,-0.687297 v 0.764811 c -0.46164,0 -0.847495,0.175701 -1.157552,0.5271 -0.306613,0.354843 -0.45992,0.880225 -0.45992,1.576131 0,0.699352 0.151586,1.224733 0.454752,1.576131 0.303167,0.354844 0.690744,0.532267 1.16272,0.532267 z M -3.851962,83.52723 -1.769401,78.034025 c -0.165364,-0.496092 -0.315227,-0.838882 -0.449585,-1.028361 -0.130914,-0.18948 -0.368627,-0.284221 -0.713135,-0.284221 -0.172254,0 -0.347955,0.02756 -0.5271,0.08268 l 0.093018,-0.8785 c 0.237711,-0.0689 0.43925,-0.103353 0.604614,-0.103353 0.492646,0 0.87161,0.19465 1.136882,0.583944 0.268715,0.385849 0.502984,0.888837 0.702799,1.508952 0.00342,0.01723 0.006869,0.02929 0.010335,0.03617 L 1.186491,83.52723 H 0.240812 l -1.204061,-3.302125 c -0.134359,-0.361733 -0.244603,-0.74242 -0.330729,-1.142049 h -0.020671 c -0.086126,0.347953 -0.167087,0.632176 -0.242879,0.852661 l -1.291911,3.591513 z m 8.1132,0 1.684652,-5.48287 h 0.971517 l 1.090373,4.221965 h 0.02067 c 0,-0.02756 0.034452,-0.189482 0.103353,-0.485759 0.068881,-0.296277 0.105054,-0.444417 0.108521,-0.444417 L 9.108488,78.04436 h 0.966349 l 1.720825,5.48287 H 10.886157 L 9.640755,79.305265 H 9.620084 C 9.599414,79.412062 9.485724,79.861651 9.27902,80.65402 L 8.540047,83.52723 H 7.584033 L 6.607348,79.925382 6.421313,79.186409 5.227588,83.52723 Z" />
  </g>
</svg>
