<?xml version="1.0" encoding="UTF-8" standalone="no"?>
<!-- Created with Inkscape (http://www.inkscape.org/) -->

<svg
   width="50.30442mm"
   height="9.7978582mm"
   viewBox="0 0 50.304419 9.7978585"
   version="1.1"
   id="svg5"
   inkscape:version="1.2 (dc2aedaf03, 2022-05-15)"
   sodipodi:docname="reach-out.svg"
   xmlns:inkscape="http://www.inkscape.org/namespaces/inkscape"
   xmlns:sodipodi="http://sodipodi.sourceforge.net/DTD/sodipodi-0.dtd"
   xmlns="http://www.w3.org/2000/svg"
   xmlns:svg="http://www.w3.org/2000/svg">
  <sodipodi:namedview
     id="namedview7"
     pagecolor="#505050"
     bordercolor="#eeeeee"
     borderopacity="1"
     inkscape:showpageshadow="0"
     inkscape:pageopacity="0"
     inkscape:pagecheckerboard="false"
     inkscape:deskcolor="#505050"
     inkscape:document-units="mm"
     showgrid="true"
     inkscape:zoom="4"
     inkscape:cx="65.75"
     inkscape:cy="43.125"
     inkscape:window-width="1920"
     inkscape:window-height="1001"
     inkscape:window-x="-9"
     inkscape:window-y="-9"
     inkscape:window-maximized="1"
     inkscape:current-layer="layer1"
     showborder="true"
     shape-rendering="auto">
    <inkscape:grid
       type="xygrid"
       id="grid9"
       color="#c0c0d1"
       opacity="0.1254902"
       empcolor="#292930"
       empopacity="0.25098039"
       originx="14.787726"
       originy="-25.030042" />
  </sodipodi:namedview>
  <defs
     id="defs2" />
  <g
     inkscape:label="Layer 1"
     inkscape:groupmode="layer"
     id="layer1"
     transform="translate(14.787727,-25.030042)">
    <path
       id="rect1514-6"
       style="fill:#ffffff;fill-opacity:1;stroke:none;stroke-width:5.70566;stroke-linecap:round;stroke-linejoin:round"
       d="m 6.678663,32.859025 v -0.759644 h 2.9998169 v 0.759644 z m 0,-4.971273 v -0.764811 h 2.9998169 v 0.764811 z" />
    <path
       id="path9307"
       style="font-size:10.5833px;line-height:1.25;font-family:'Arial Unicode MS';-inkscape-font-specification:'Arial Unicode MS, Normal';letter-spacing:0px;word-spacing:0px;fill:#ffffff;stroke-width:0.264583"
       d="m -14.787727,34.827897 v -7.575765 h 1.002523 v 3.343465 h 1.157552 c 0.292832,0 0.5271,-0.02584 0.702799,-0.07751 0.179145,-0.05168 0.368627,-0.175702 0.568441,-0.372071 0.20326,-0.192924 0.396187,-0.42547 0.578776,-0.697632 0.18259,-0.272161 0.651127,-1.00425 1.405599,-2.196248 h 1.260905 l -1.322917,2.06189 c -0.444415,0.695906 -0.919842,1.15583 -1.426269,1.37976 v 0.02067 c 0.692461,0.09302 1.219565,0.313505 1.581299,0.661458 0.361733,0.347953 0.542602,0.807878 0.542602,1.379761 0,0.316948 -0.063735,0.618396 -0.191203,0.904338 -0.124023,0.285941 -0.303169,0.521932 -0.537434,0.707967 -0.234266,0.189479 -0.50643,0.313503 -0.816488,0.37207 -0.310057,0.05857 -0.694189,0.08785 -1.152385,0.08785 z m 1.002523,-0.831991 h 2.392619 c 0.578773,0 0.993911,-0.120579 1.245402,-0.361735 0.251491,-0.241155 0.377238,-0.533991 0.377238,-0.878499 0,-0.265271 -0.075793,-0.504707 -0.227377,-0.718302 -0.151584,-0.213595 -0.354846,-0.35829 -0.609782,-0.434082 -0.251491,-0.07235 -0.59428,-0.108521 -1.028361,-0.108521 h -2.149739 z m 8.779826,-1.136881 c -0.816484,0 -1.450388,-0.26872 -1.901693,-0.806152 -0.447861,-0.537433 -0.671794,-1.238516 -0.671794,-2.103231 0,-0.875051 0.230824,-1.565798 0.692464,-2.072225 0.465087,-0.502982 1.109325,-0.754476 1.932699,-0.754476 0.620114,0 1.136883,0.153308 1.550293,0.45992 0.41341,0.306613 0.697633,0.745866 0.852661,1.317749 l -0.956014,0.118856 C -3.63423,28.640507 -3.818544,28.356284 -4.0597,28.166805 -4.300855,27.98077 -4.598859,27.887752 -4.953702,27.887752 c -0.461641,0 -0.847494,0.160199 -1.157552,0.480591 -0.306614,0.320392 -0.478871,0.783761 -0.516764,1.390096 h 4.108276 c 0,0.871605 -0.129192,1.517566 -0.387573,1.937866 -0.258381,0.423745 -0.57361,0.723471 -0.945679,0.89917 -0.368624,0.175699 -0.752755,0.26355 -1.152384,0.26355 z m 5.937622,0 c -0.723467,0 -1.291913,-0.14125 -1.705323,-0.423747 -0.413409,-0.282496 -0.670071,-0.704524 -0.769978,-1.266072 l 0.909505,-0.118856 c 0.086126,0.403075 0.244603,0.678684 0.475423,0.826823 0.234266,0.148138 0.551217,0.222208 0.950846,0.222208 0.313503,0 0.563275,-0.0379 0.749309,-0.113688 0.186034,-0.07579 0.320394,-0.1757 0.403076,-0.299723 0.086126,-0.124023 0.137802,-0.244603 0.155029,-0.361735 0.017227,-0.113688 0.025838,-0.31006 0.025838,-0.589111 -0.21015,-0.07579 -0.477147,-0.13953 -0.800984,-0.191203 L 0.456821,30.41473 c -0.795814,-0.09646 -1.355647,-0.292835 -1.679485,-0.589112 -0.320392,-0.292831 -0.48059,-0.666627 -0.48059,-1.121378 0,-0.475422 0.167089,-0.857831 0.501261,-1.147217 0.334173,-0.289387 0.790651,-0.434082 1.369426,-0.434082 0.723466,0 1.396988,0.268719 2.020548,0.806152 0.037896,-0.279051 0.101631,-0.504707 0.191203,-0.676961 h 0.976684 c -0.141247,0.248046 -0.227375,0.501263 -0.258382,0.759644 -0.02756,0.261825 -0.041341,0.773426 -0.041341,1.53479 v 1.250569 c 0,0.434081 -0.036174,0.788928 -0.10852,1.064535 -0.068902,0.275606 -0.258384,0.509875 -0.568441,0.702799 -0.306613,0.19637 -0.78893,0.294556 -1.44694,0.294556 z m 5.746419,0 c -0.41341,0 -0.797541,-0.08785 -1.173055,-0.26355 -0.375514,-0.172255 -0.68902,-0.473703 -0.940511,-0.904337 -0.248046,-0.427191 -0.37207,-0.997359 -0.37207,-1.71049 0,-0.86127 0.217042,-1.55374 0.651123,-2.077393 0.43408,-0.520207 1.038699,-0.780314 1.834513,-0.780314 v 0.764811 c -0.496093,0 -0.876777,0.182592 -1.142049,0.54777 -0.261826,0.368624 -0.392741,0.89056 -0.392741,1.565796 0,0.661456 0.13436,1.176501 0.403076,1.545126 0.268717,0.368623 0.611506,0.552937 1.131714,0.552937 z M -5.005378,32.099381 c 0.365179,0 0.701078,-0.124024 1.00769,-0.37207 0.31006,-0.2446 0.484039,-0.645957 0.521932,-1.204061 h -3.100586 c 0.044786,0.465086 0.20843,0.84405 0.490926,1.136882 0.282497,0.292832 0.642513,0.439249 1.080038,0.439249 z m 7.131347,-2.098063 v -0.335897 c 0,-0.65801 -0.175701,-1.124825 -0.527099,-1.400431 -0.347953,-0.272162 -0.751033,-0.408244 -1.209229,-0.408244 -0.354843,0 -0.627008,0.08096 -0.816487,0.24288 -0.18948,0.165364 -0.284221,0.373794 -0.284221,0.625284 0,0.499537 0.351403,0.795818 1.054199,0.888835 0.702797,0.09646 1.297081,0.225655 1.782837,0.387573 z" />
    <path
       id="path9313-8"
       style="font-size:10.5833px;line-height:1.25;font-family:'Arial Unicode MS';-inkscape-font-specification:'Arial Unicode MS, Normal';letter-spacing:0px;word-spacing:0px;fill:#ffffff;stroke-width:0.264583"
       d="m 12.779066,34.827897 v -7.575765 h 0.930176 v 2.997233 c 0,0.678681 0.14814,1.148941 0.444417,1.410766 0.299722,0.265272 0.639067,0.397909 1.018026,0.397909 0.382404,0 0.670072,-0.111966 0.862996,-0.335897 0.192925,-0.22393 0.289388,-0.55983 0.289388,-1.00769 v -3.462321 h 0.935344 v 3.472656 c 0,0.533987 -0.06546,0.950847 -0.196371,1.25057 -0.130912,0.299721 -0.358291,0.521932 -0.682129,0.666626 -0.323837,0.144693 -0.663182,0.217041 -1.018025,0.217041 -0.661456,0 -1.212676,-0.249772 -1.653646,-0.749309 v 2.718181 z m 21.678263,-0.165365 -0.930175,-0.563273 v -1.364258 h -0.676962 v -0.718302 h 0.676962 v -3.15743 c 0,-0.39274 0.02067,-0.699356 0.06201,-0.919841 0.04134,-0.220485 0.15503,-0.403077 0.341065,-0.54777 0.186033,-0.141248 0.482315,-0.211873 0.888834,-0.211873 0.18948,0 0.422026,0.02756 0.697632,0.08268 l -0.129191,0.826823 c -0.141248,-0.02756 -0.279053,-0.04134 -0.413411,-0.04134 -0.23082,0 -0.375516,0.05684 -0.434082,0.170532 -0.05512,0.117133 -0.08268,0.313505 -0.08268,0.589111 v 3.209107 h 0.930176 v 0.718303 H 34.457329 Z M 9.6784799,32.859025 v -0.759644 c 0.3238381,0 0.6407891,-0.09302 0.8474931,-0.279053 0.21015,-0.186033 0.361736,-0.463366 0.454753,-0.83199 l 0.89917,0.139526 c -0.09302,0.568438 -0.341066,0.999079 -0.744141,1.291911 -0.399629,0.292832 -0.892282,0.43925 -1.4572751,0.43925 z m 14.1593421,0 c -0.726911,0 -1.336698,-0.237714 -1.829345,-0.713135 -0.492647,-0.471976 -0.738973,-1.190285 -0.738973,-2.154907 0,-0.995629 0.254939,-1.72255 0.764811,-2.180746 0.509872,-0.458195 1.111046,-0.687296 1.803507,-0.687296 0.661456,0 1.25574,0.22221 1.782837,0.666626 0.527098,0.44786 0.79065,1.210955 0.79065,2.289266 0,0.88883 -0.244604,1.57441 -0.733806,2.056722 -0.485756,0.482311 -1.098988,0.72347 -1.839681,0.72347 z m 3.643189,-0.124024 v -3.400309 c 0,-0.496092 0.0534,-0.900895 0.160197,-1.214396 0.110242,-0.310057 0.327285,-0.55466 0.651123,-0.733806 0.327282,-0.175698 0.68213,-0.263549 1.064534,-0.263549 0.726912,0 1.300526,0.311784 1.720826,0.935343 h 0.02584 v -0.806152 h 0.83199 v 5.482869 h -0.930175 v -2.930053 c 0,-0.764808 -0.155031,-1.26952 -0.465088,-1.51412 -0.310057,-0.241156 -0.640789,-0.361735 -0.992188,-0.361735 -0.272162,0 -0.50643,0.06718 -0.702799,0.201538 -0.196368,0.137803 -0.31867,0.311782 -0.366903,0.521932 -0.04479,0.21015 -0.06718,0.558108 -0.06718,1.043864 v 3.038574 z m -3.643189,-0.63562 c 0.458196,0 0.842327,-0.173978 1.152385,-0.521932 0.313502,-0.347953 0.470255,-0.864722 0.470255,-1.550293 0,-0.640785 -0.137805,-1.157554 -0.413411,-1.550293 -0.275607,-0.392739 -0.678686,-0.589111 -1.209229,-0.589111 -0.46164,0 -0.847494,0.175701 -1.157552,0.527099 -0.306611,0.354843 -0.45992,0.880225 -0.45992,1.576132 0,0.699351 0.151586,1.224733 0.454753,1.576131 0.303167,0.354843 0.690743,0.532267 1.162719,0.532267 z M 11.053073,29.262345 c -0.05857,-0.458197 -0.203262,-0.802708 -0.434082,-1.033529 -0.227375,-0.227373 -0.540882,-0.341064 -0.9405111,-0.341064 v -0.764811 c 0.5443231,0 1.0421431,0.161919 1.4727781,0.485758 0.430635,0.327282 0.706245,0.840606 0.826823,1.539958 z" />
  </g>
</svg>
