<?xml version="1.0" encoding="UTF-8" standalone="no"?>
<!-- Created with Inkscape (http://www.inkscape.org/) -->

<svg
   width="41.612972mm"
   height="9.9167118mm"
   viewBox="0 0 41.612972 9.9167119"
   version="1.1"
   id="svg5"
   inkscape:version="1.2 (dc2aedaf03, 2022-05-15)"
   sodipodi:docname="my-story.svg"
   xmlns:inkscape="http://www.inkscape.org/namespaces/inkscape"
   xmlns:sodipodi="http://sodipodi.sourceforge.net/DTD/sodipodi-0.dtd"
   xmlns="http://www.w3.org/2000/svg"
   xmlns:svg="http://www.w3.org/2000/svg">
  <sodipodi:namedview
     id="namedview7"
     pagecolor="#505050"
     bordercolor="#eeeeee"
     borderopacity="1"
     inkscape:showpageshadow="0"
     inkscape:pageopacity="0"
     inkscape:pagecheckerboard="false"
     inkscape:deskcolor="#505050"
     inkscape:document-units="mm"
     showgrid="true"
     inkscape:zoom="2.8284271"
     inkscape:cx="140.00714"
     inkscape:cy="-18.561553"
     inkscape:window-width="1920"
     inkscape:window-height="1001"
     inkscape:window-x="-9"
     inkscape:window-y="-9"
     inkscape:window-maximized="1"
     inkscape:current-layer="layer1"
     showborder="true"
     shape-rendering="auto">
    <inkscape:grid
       type="xygrid"
       id="grid9"
       color="#c0c0d1"
       opacity="0.1254902"
       empcolor="#292930"
       empopacity="0.25098039"
       originx="8.971029"
       originy="-84.480142" />
  </sodipodi:namedview>
  <defs
     id="defs2" />
  <g
     inkscape:label="Layer 1"
     inkscape:groupmode="layer"
     id="layer1"
     transform="translate(8.971029,-84.480139)">
    <path
       id="path1214-3"
       style="font-size:10.5833px;line-height:1.25;font-family:'Arial Unicode MS';-inkscape-font-specification:'Arial Unicode MS, Normal';letter-spacing:0px;word-spacing:0px;fill:#ffffff;stroke-width:0.264583"
       d="m 20.946525,92.320491 v -0.759643 c 0.458196,0 0.842328,-0.173978 1.152384,-0.521932 0.313503,-0.347954 0.470256,-0.864725 0.470256,-1.550293 0,-0.640784 -0.137806,-1.157554 -0.413411,-1.550293 -0.275607,-0.39274 -0.678688,-0.589111 -1.209229,-0.589111 v -0.764812 c 0.661454,0 1.255739,0.222211 1.782837,0.666626 0.527096,0.447861 0.790649,1.210957 0.790649,2.289266 0,0.888831 -0.244603,1.574413 -0.733805,2.056722 -0.485757,0.482311 -1.09899,0.72347 -1.839681,0.72347 z m 5.669938,-0.01137 c -0.478865,0 -0.866443,-0.316952 -1.16272,-0.950847 h -0.02067 v 0.826823 h -0.847494 v -5.482869 h 0.930176 v 2.878377 c 0,0.561547 0.08957,0.997356 0.268718,1.307414 0.179143,0.313501 0.442696,0.470255 0.790649,0.470255 0.220485,0 0.446141,-0.06718 0.676961,-0.201538 l 0.320394,0.857829 c -0.320393,0.19637 -0.639066,0.294556 -0.956014,0.294556 z m 0.98702,-0.124024 2.08256,-5.493205 c -0.165364,-0.496089 -0.315227,-0.838881 -0.449585,-1.028361 -0.130913,-0.189478 -0.368627,-0.28422 -0.713134,-0.28422 -0.172254,0 -0.347956,0.02756 -0.5271,0.08268 l 0.09302,-0.878499 c 0.237711,-0.0689 0.439251,-0.103353 0.604615,-0.103353 0.492646,0 0.871611,0.19465 1.136881,0.583944 0.268717,0.385848 0.502985,0.888838 0.7028,1.508952 0.0034,0.01723 0.0069,0.02929 0.01034,0.03617 l 2.098063,5.575887 h -0.945679 l -1.20406,-3.302124 c -0.134358,-0.361732 -0.244602,-0.742419 -0.33073,-1.142049 h -0.02067 c -0.08613,0.347953 -0.167087,0.632175 -0.242879,0.852661 l -1.291911,3.591512 z" />
    <path
       id="rect1514"
       style="fill:#ffffff;fill-opacity:1;stroke:none;stroke-width:5.70566;stroke-linecap:round;stroke-linejoin:round"
       d="m 17.946191,92.319975 v -0.759644 h 3.000334 v 0.759644 z m 0,-4.970756 v -0.764811 h 3.000334 v 0.764811 z" />
    <path
       id="path1208"
       style="font-size:10.5833px;line-height:1.25;font-family:'Arial Unicode MS';-inkscape-font-specification:'Arial Unicode MS, Normal';letter-spacing:0px;word-spacing:0px;fill:#ffffff;stroke-width:0.264583"
       d="m -8.971029,94.396851 v -7.69462 h 0.956014 v 6.630086 l 2.123901,-4.511353 h 0.609782 l 2.139405,4.511353 v -6.630086 h 1.023193 v 7.69462 h -1.421102 l -1.984375,-4.283976 -2.051554,4.283976 z M 13.869954,94.112632 12.939778,93.549359 V 92.1851 h -0.676961 v -0.718302 h 0.676961 v -3.157431 c 0,-0.392739 0.02067,-0.699354 0.06201,-0.919839 0.04134,-0.220485 0.15503,-0.403077 0.341065,-0.547771 0.186034,-0.141248 0.482315,-0.211874 0.888834,-0.211874 0.189479,0 0.422026,0.02756 0.697632,0.08268 l -0.129189,0.826825 c -0.141249,-0.02756 -0.279054,-0.04134 -0.413411,-0.04134 -0.230821,0 -0.375516,0.05684 -0.434083,0.170533 -0.05512,0.117133 -0.08268,0.313504 -0.08268,0.589111 v 3.209106 h 0.930176 V 92.1851 h -0.930176 z m 4.076237,-1.79214 c -0.726912,0 -1.336699,-0.237713 -1.829346,-0.713135 -0.492646,-0.471975 -0.738973,-1.190283 -0.738973,-2.154907 0,-0.995627 0.254939,-1.722549 0.764812,-2.180745 0.509872,-0.458196 1.111046,-0.687296 1.803507,-0.687296 v 0.76481 c -0.46164,0 -0.847495,0.175701 -1.157552,0.527101 -0.306613,0.354843 -0.45992,0.880225 -0.45992,1.57613 0,0.699352 0.151586,1.224734 0.454752,1.576131 0.303167,0.354845 0.690744,0.532268 1.16272,0.532268 z m -8.659936,-0.01137 c -0.61667,0 -1.1076,-0.148139 -1.472779,-0.444416 -0.365178,-0.296278 -0.54777,-0.673519 -0.54777,-1.131714 0,-0.368624 0.124025,-0.685575 0.37207,-0.950846 0.251492,-0.265273 0.766537,-0.490928 1.545126,-0.676963 0.523652,-0.12747 0.859552,-0.217043 1.00769,-0.268717 0.151583,-0.04823 0.277331,-0.122302 0.377238,-0.222209 0.09991,-0.09991 0.149862,-0.232543 0.149862,-0.397908 0,-0.2446 -0.108521,-0.45303 -0.325562,-0.625284 -0.217039,-0.16881 -0.528824,-0.253216 -0.935343,-0.253216 -0.423745,0 -0.754477,0.09474 -0.992188,0.284221 -0.234263,0.18948 -0.375513,0.475424 -0.423746,0.85783 L 7.115844,88.340372 c 0.089572,-0.589108 0.329009,-1.031806 0.718303,-1.328083 0.392739,-0.292834 0.937069,-0.43925 1.632975,-0.43925 0.668346,0 1.202341,0.167088 1.60197,0.501262 0.399629,0.334173 0.599446,0.745864 0.599446,1.235065 0,0.36518 -0.08096,0.649403 -0.242879,0.852662 -0.158474,0.206707 -0.382407,0.366903 -0.671794,0.480592 -0.285941,0.113687 -0.718305,0.244602 -1.297078,0.39274 -0.513318,0.13436 -0.85783,0.248048 -1.033529,0.341066 -0.172254,0.09302 -0.258382,0.248048 -0.258382,0.465087 0,0.230821 0.108521,0.406522 0.325562,0.5271 0.220485,0.120577 0.508153,0.180868 0.862996,0.180868 0.358288,0 0.637343,-0.07579 0.837158,-0.227378 0.203261,-0.148137 0.325563,-0.37207 0.366903,-0.671792 L 11.467,90.774334 c -0.07235,0.509872 -0.291112,0.892281 -0.656291,1.147217 -0.361733,0.258381 -0.869889,0.387572 -1.524454,0.387571 z M -1.27124,92.1851 0.81132,86.691896 C 0.645956,86.195804 0.496093,85.853014 0.361735,85.663534 0.230822,85.474056 -0.006892,85.379315 -0.3514,85.379315 c -0.172254,0 -0.347956,0.02756 -0.5271,0.08268 l 0.093018,-0.878498 c 0.23771,-0.0689 0.43925,-0.103353 0.604614,-0.103353 0.492647,0 0.871611,0.19465 1.136882,0.583942 0.268716,0.38585 0.502985,0.888839 0.702799,1.508953 0.00343,0.01723 0.00687,0.02929 0.010336,0.03617 L 3.767212,92.1851 H 2.821533 L 1.617472,88.882977 C 1.483114,88.521242 1.37287,88.140556 1.286743,87.740927 H 1.266072 C 1.179945,88.088881 1.098985,88.373103 1.023193,88.593589 L -0.268718,92.1851 Z" />
  </g>
</svg>
