{
    "asset" : {
        "generator" : "Khronos glTF Blender I/O v1.8.19",
        "version" : "2.0"
    },
    "scene" : 0,
    "scenes" : [
        {
            "name" : "Scene",
            "nodes" : [
                0,
                1,
                2,
                3,
                4
            ]
        }
    ],
    "nodes" : [
        {
            "mesh" : 0,
            "name" : "Curve",
            "scale" : [
                6.83396053314209,
                6.83396053314209,
                6.83396053314209
            ]
        },
        {
            "mesh" : 1,
            "name" : "Curve.001",
            "scale" : [
                6.83396053314209,
                6.83396053314209,
                6.83396053314209
            ]
        },
        {
            "mesh" : 2,
            "name" : "Curve.002",
            "scale" : [
                6.83396053314209,
                6.83396053314209,
                6.83396053314209
            ]
        },
        {
            "mesh" : 3,
            "name" : "Curve.003",
            "scale" : [
                6.83396053314209,
                6.83396053314209,
                6.83396053314209
            ]
        },
        {
            "mesh" : 4,
            "name" : "Curve.004",
            "scale" : [
                6.83396053314209,
                6.83396053314209,
                6.83396053314209
            ]
        }
    ],
    "materials" : [
        {
            "doubleSided" : true,
            "name" : "SVGMat",
            "pbrMetallicRoughness" : {
                "baseColorFactor" : [
                    0.21586032211780548,
                    0.21586033701896667,
                    0.215860515832901,
                    1
                ],
                "metallicFactor" : 0,
                "roughnessFactor" : 1
            }
        },
        {
            "doubleSided" : true,
            "name" : "SVGMat.001",
            "pbrMetallicRoughness" : {
                "baseColorFactor" : [
                    1,
                    0.43415334820747375,
                    0.2345506250858307,
                    1
                ],
                "metallicFactor" : 0,
                "roughnessFactor" : 1
            }
        },
        {
            "doubleSided" : true,
            "name" : "SVGMat.002",
            "pbrMetallicRoughness" : {
                "baseColorFactor" : [
                    0.947306215763092,
                    0.6239601969718933,
                    0.2917707860469818,
                    1
                ],
                "metallicFactor" : 0,
                "roughnessFactor" : 1
            }
        },
        {
            "doubleSided" : true,
            "name" : "yellow",
            "pbrMetallicRoughness" : {
                "baseColorFactor" : [
                    0.8879223465919495,
                    0.8307691216468811,
                    0.8148465156555176,
                    1
                ],
                "metallicFactor" : 0
            }
        }
    ],
    "meshes" : [
        {
            "name" : "Curve",
            "primitives" : [
                {
                    "attributes" : {
                        "POSITION" : 0,
                        "NORMAL" : 1,
                        "TEXCOORD_0" : 2
                    },
                    "indices" : 3,
                    "material" : 0
                }
            ]
        },
        {
            "name" : "Curve.001",
            "primitives" : [
                {
                    "attributes" : {
                        "POSITION" : 4,
                        "NORMAL" : 5,
                        "TEXCOORD_0" : 6
                    },
                    "indices" : 7,
                    "material" : 1
                }
            ]
        },
        {
            "name" : "Curve.002",
            "primitives" : [
                {
                    "attributes" : {
                        "POSITION" : 8,
                        "NORMAL" : 9,
                        "TEXCOORD_0" : 10
                    },
                    "indices" : 11,
                    "material" : 2
                }
            ]
        },
        {
            "name" : "Curve.003",
            "primitives" : [
                {
                    "attributes" : {
                        "POSITION" : 12,
                        "NORMAL" : 13,
                        "TEXCOORD_0" : 14
                    },
                    "indices" : 15,
                    "material" : 3
                }
            ]
        },
        {
            "name" : "Curve.004",
            "primitives" : [
                {
                    "attributes" : {
                        "POSITION" : 16,
                        "NORMAL" : 17,
                        "TEXCOORD_0" : 18
                    },
                    "indices" : 19,
                    "material" : 3
                }
            ]
        }
    ],
    "accessors" : [
        {
            "bufferView" : 0,
            "componentType" : 5126,
            "count" : 192,
            "max" : [
                0.11410477757453918,
                0.004999999888241291,
                -0.12500059604644775
            ],
            "min" : [
                0.030593514442443848,
                -0.004999999888241291,
                -0.14447021484375
            ],
            "type" : "VEC3"
        },
        {
            "bufferView" : 1,
            "componentType" : 5126,
            "count" : 192,
            "type" : "VEC3"
        },
        {
            "bufferView" : 2,
            "componentType" : 5126,
            "count" : 192,
            "type" : "VEC2"
        },
        {
            "bufferView" : 3,
            "componentType" : 5123,
            "count" : 408,
            "type" : "SCALAR"
        },
        {
            "bufferView" : 4,
            "componentType" : 5126,
            "count" : 28,
            "max" : [
                0.123446524143219,
                0.019999999552965164,
                0
            ],
            "min" : [
                0.021054208278656006,
                -0.019999999552965164,
                -0.11608407646417618
            ],
            "type" : "VEC3"
        },
        {
            "bufferView" : 5,
            "componentType" : 5126,
            "count" : 28,
            "type" : "VEC3"
        },
        {
            "bufferView" : 6,
            "componentType" : 5126,
            "count" : 28,
            "type" : "VEC2"
        },
        {
            "bufferView" : 7,
            "componentType" : 5123,
            "count" : 48,
            "type" : "SCALAR"
        },
        {
            "bufferView" : 8,
            "componentType" : 5126,
            "count" : 22,
            "max" : [
                0.11410477757453918,
                0.02500000037252903,
                -0.008888304233551025
            ],
            "min" : [
                0.0722503662109375,
                -0.02500000037252903,
                -0.1075061559677124
            ],
            "type" : "VEC3"
        },
        {
            "bufferView" : 9,
            "componentType" : 5126,
            "count" : 22,
            "type" : "VEC3"
        },
        {
            "bufferView" : 10,
            "componentType" : 5126,
            "count" : 22,
            "type" : "VEC2"
        },
        {
            "bufferView" : 11,
            "componentType" : 5123,
            "count" : 36,
            "type" : "SCALAR"
        },
        {
            "bufferView" : 12,
            "componentType" : 5126,
            "count" : 78,
            "max" : [
                0.0722503662109375,
                0.029999999329447746,
                -0.022122003138065338
            ],
            "min" : [
                0.040076375007629395,
                -0.029999999329447746,
                -0.09472392499446869
            ],
            "type" : "VEC3"
        },
        {
            "bufferView" : 13,
            "componentType" : 5126,
            "count" : 78,
            "type" : "VEC3"
        },
        {
            "bufferView" : 14,
            "componentType" : 5126,
            "count" : 78,
            "type" : "VEC2"
        },
        {
            "bufferView" : 15,
            "componentType" : 5123,
            "count" : 144,
            "type" : "SCALAR"
        },
        {
            "bufferView" : 16,
            "componentType" : 5126,
            "count" : 64,
            "max" : [
                0.10431146621704102,
                0.029999999329447746,
                -0.02217843383550644
            ],
            "min" : [
                0.0721939206123352,
                -0.029999999329447746,
                -0.09472392499446869
            ],
            "type" : "VEC3"
        },
        {
            "bufferView" : 17,
            "componentType" : 5126,
            "count" : 64,
            "type" : "VEC3"
        },
        {
            "bufferView" : 18,
            "componentType" : 5126,
            "count" : 64,
            "type" : "VEC2"
        },
        {
            "bufferView" : 19,
            "componentType" : 5123,
            "count" : 120,
            "type" : "SCALAR"
        }
    ],
    "bufferViews" : [
        {
            "buffer" : 0,
            "byteLength" : 2304,
            "byteOffset" : 0
        },
        {
            "buffer" : 0,
            "byteLength" : 2304,
            "byteOffset" : 2304
        },
        {
            "buffer" : 0,
            "byteLength" : 1536,
            "byteOffset" : 4608
        },
        {
            "buffer" : 0,
            "byteLength" : 816,
            "byteOffset" : 6144
        },
        {
            "buffer" : 0,
            "byteLength" : 336,
            "byteOffset" : 6960
        },
        {
            "buffer" : 0,
            "byteLength" : 336,
            "byteOffset" : 7296
        },
        {
            "buffer" : 0,
            "byteLength" : 224,
            "byteOffset" : 7632
        },
        {
            "buffer" : 0,
            "byteLength" : 96,
            "byteOffset" : 7856
        },
        {
            "buffer" : 0,
            "byteLength" : 264,
            "byteOffset" : 7952
        },
        {
            "buffer" : 0,
            "byteLength" : 264,
            "byteOffset" : 8216
        },
        {
            "buffer" : 0,
            "byteLength" : 176,
            "byteOffset" : 8480
        },
        {
            "buffer" : 0,
            "byteLength" : 72,
            "byteOffset" : 8656
        },
        {
            "buffer" : 0,
            "byteLength" : 936,
            "byteOffset" : 8728
        },
        {
            "buffer" : 0,
            "byteLength" : 936,
            "byteOffset" : 9664
        },
        {
            "buffer" : 0,
            "byteLength" : 624,
            "byteOffset" : 10600
        },
        {
            "buffer" : 0,
            "byteLength" : 288,
            "byteOffset" : 11224
        },
        {
            "buffer" : 0,
            "byteLength" : 768,
            "byteOffset" : 11512
        },
        {
            "buffer" : 0,
            "byteLength" : 768,
            "byteOffset" : 12280
        },
        {
            "buffer" : 0,
            "byteLength" : 512,
            "byteOffset" : 13048
        },
        {
            "buffer" : 0,
            "byteLength" : 240,
            "byteOffset" : 13560
        }
    ],
    "buffers" : [
        {
            "byteLength" : 13800,
            "uri" : "data:application/octet-stream;base64,"
        }
    ]
}
